# xmcd
#
# Track frame offsets: 
#        150
#        16497
#        27685
#        39801
#        48674
#        60602
#        71006
#        79042
#        91612
#        103425
#        114837
#        128801
#        142179
#        158388
#
# Disc length: 2432 seconds
#
# Revision: 0
# Processed by: cddbd v1.5.1PL2 Copyright (c) Steve Scherf et al.
# Submitted via: ExactAudioCopy v0.95a5
#
DISCID=b6097e0e
DTITLE=The Weeks Family - Old Buried Treasure
DYEAR=2005
DGENRE=Bluegrass
TTITLE0=Judgement Coming
TTITLE1=War West Virginia
TTITLE2=Old Buried Treasure
TTITLE3=Weath Won't Save Your Soul
TTITLE4=Rank Stranger
TTITLE5=Still Small Voice
TTITLE6=Appalachlan Home
TTITLE7=There Goes The Gravy Train
TTITLE8=Daddy's Pocket Watch
TTITLE9=Don't Look Back
TTITLE10=Four Worn Spots
TTITLE11=He's Always There
TTITLE12=I Never Said Goodbye 
TTITLE13=I'll Arise Again
EXTD=
EXTT0=
EXTT1=
EXTT2=
EXTT3=
EXTT4=
EXTT5=
EXTT6=
EXTT7=
EXTT8=
EXTT9=
EXTT10=
EXTT11=
EXTT12=
EXTT13=
PLAYORDER=
